PathFileType	4	(X/Y/Z)	./resultDataOpenSim/trcMotMarkerGrf/sub06/qtm-13-08.trc
DataRate	CameraRate	NumFrames	NumMarkers	Units	OrigDataRate	OrigDataStartFrame	OrigNumFrames
250.000000	250.000000	5	24	m	250.000000	131	523
Frame#	Time	L.Toe.Tip			R.Toe.Tip			L.Ankle.Lat			R.Ankle.Lat			L.Ankle.Med			R.Ankle.Med			L.Heel			R.Heel			L.Knee.Lat			R.Knee.Lat			L.Knee.Med			R.Knee.Med			L.Thigh.Upper			R.Thigh.Upper			L.ASIS			R.ASIS			V.Sacral			L.Acromium			R.Acromium			C7			L.Elbow			R.Elbow			L.Wrist.Lat			R.Wrist.Lat
		X1	Y1	Z1	X2	Y2	Z2	X3	Y3	Z3	X4	Y4	Z4	X5	Y5	Z5	X6	Y6	Z6	X7	Y7	Z7	X8	Y8	Z8	X9	Y9	Z9	X10	Y10	Z10	X11	Y11	Z11	X12	Y12	Z12	X13	Y13	Z13	X14	Y14	Z14	X15	Y15	Z15	X16	Y16	Z16	X17	Y17	Z17	X18	Y18	Z18	X19	Y19	Z19	X20	Y20	Z20	X21	Y21	Z21	X22	Y22	Z22	X23	Y23	Z23	X24	Y24	Z24

131	0.52	-0.31496001	0.075330836	-0.09180084	-0.73316397	0.035990814	0.072401766	-0.44194899	0.091707955	-0.096052706	-0.86779566	0.066583396	0.085940872	-0.42957694	0.11027965	-0.011775783	-0.84138178	0.086307937	0.0016905562	-0.50028309	0.052288134	-0.036462021	-0.92017937	0.046752342	0.019532903	-0.44204994	0.47108142	-0.11007433	-0.74402162	0.43430157	0.12728508	-0.45110431	0.46779228	0.011035501	-0.76841969	0.43537187	-0.0028461458	-0.62594078	0.82210754	-0.15078949	-0.68439167	0.79674457	0.19614858	-0.56661908	0.86638357	-0.09286031	-0.57938089	0.85105331	0.15187772	-0.75912666	0.93374911	0.022773973	-0.64458019	1.3423475	-0.15528	-0.6303918	1.328676	0.20338845	-0.70919945	1.3717142	0.026676712	-0.75020236	1.0452404	-0.21157636	-0.67718815	1.0166599	0.29867319	-0.63935178	0.82598082	-0.23708009	-0.45048344	0.90455909	0.29347532
132	0.524	-0.29537056	0.078176785	-0.090387969	-0.73305563	0.03589523	0.072381808	-0.42288327	0.091096385	-0.095382839	-0.86748841	0.066929564	0.08565361	-0.41147974	0.11008222	-0.010975219	-0.8408525	0.086467436	0.0014389573	-0.4804216	0.050203378	-0.035863765	-0.91990288	0.047186996	0.019128863	-0.43547004	0.46971934	-0.10912433	-0.73933178	0.43406556	0.12718461	-0.44473485	0.46630652	0.012211485	-0.7651296	0.43487068	-0.0027848284	-0.61942182	0.82054109	-0.15063752	-0.67769131	0.79487407	0.19517031	-0.55998339	0.86468923	-0.092792305	-0.5733097	0.84939524	0.15228606	-0.75282953	0.93217608	0.022729095	-0.63849243	1.3406338	-0.15531733	-0.62438811	1.3272487	0.20347031	-0.70333643	1.3702469	0.02666675	-0.74546665	1.0441787	-0.21119085	-0.66956542	1.0150696	0.29938384	-0.63689203	0.82425013	-0.23771629	-0.44153736	0.90594704	0.2932015
133	0.528	-0.27603944	0.081258748	-0.088889499	-0.73296186	0.035773165	0.072345013	-0.40406821	0.090788717	-0.094751644	-0.86717893	0.067268565	0.085332577	-0.39365981	0.1101605	-0.010306371	-0.84029946	0.086640018	0.0011701563	-0.4609101	0.048587983	-0.035125551	-0.9196225	0.047627522	0.018733737	-0.42890397	0.46824419	-0.10816787	-0.73355016	0.43394201	0.12680527	-0.43840674	0.46464599	0.013424612	-0.76173126	0.43432243	-0.0027524495	-0.61283539	0.81883603	-0.15047079	-0.67120582	0.79298221	0.19436437	-0.55332192	0.86291863	-0.092731689	-0.56728748	0.8477212	0.1528333	-0.74656846	0.93050362	0.022868526	-0.63242336	1.3388621	-0.15538146	-0.61835494	1.3257667	0.20354371	-0.69748409	1.368751	0.026638477	-0.74092594	1.0431191	-0.21076087	-0.66190408	1.0134263	0.3000484	-0.634315	0.82249835	-0.23835097	-0.43266198	0.90725309	0.29291836
134	0.532	-0.25699308	0.08461639	-0.087298117	-0.73288884	0.035643953	0.072297794	-0.38552497	0.090802442	-0.094162812	-0.86688516	0.067599174	0.084997132	-0.37618611	0.11048109	-0.0097535689	-0.83973421	0.086824741	0.00087772649	-0.44176838	0.047401016	-0.03429674	-0.9193411	0.048092107	0.018339023	-0.42231409	0.46667986	-0.1072075	-0.72715748	0.43379262	0.12623653	-0.43212501	0.46282011	0.014637915	-0.75823557	0.43373944	-0.002749804	-0.60598047	0.81704125	-0.15024278	-0.66535245	0.79126211	0.19394113	-0.54663544	0.86107157	-0.092665692	-0.56155044	0.84604788	0.1536014	-0.74023174	0.9286334	0.022973045	-0.62635099	1.3370343	-0.15545878	-0.61229677	1.3242397	0.20360713	-0.69145904	1.3671761	0.026537013	-0.73643465	1.042046	-0.21029946	-0.65424563	1.0117456	0.30066018	-0.63156894	0.82069046	-0.23889533	-0.42385925	0.90848777	0.29261425
135	0.536	-0.23829035	0.088260478	-0.085613385	-0.73283992	0.035517353	0.072249601	-0.36725668	0.091155266	-0.093614311	-0.86660136	0.0679355	0.084659029	-0.35909196	0.11101891	-0.0092854511	-0.83916836	0.087013533	0.00056640711	-0.422945	0.046542944	-0.033593215	-0.91905576	0.048607428	0.017930498	-0.4156627	0.46502519	-0.10626348	-0.72080688	0.43354104	0.12565993	-0.42588361	0.46084041	0.01582297	-0.75464681	0.43312977	-0.0027660073	-0.59880082	0.81519173	-0.14993394	-0.66039509	0.7898853	0.19395773	-0.53991838	0.85915075	-0.092587436	-0.55630136	0.84447288	0.15464225	-0.73368675	0.92649458	0.022782226	-0.62018351	1.3351528	-0.15551726	-0.60621984	1.3226743	0.20366193	-0.68519467	1.3654813	0.02635868	-0.7318433	1.0409307	-0.20982785	-0.64661567	1.010032	0.30121938	-0.62868902	0.818822	-0.2393263	-0.41513319	0.90964946	0.29228884
